<?xml version="1.0" encoding="UTF-8"?><svg xmlns="http://www.w3.org/2000/svg" xmlns:xlink="http://www.w3.org/1999/xlink" width="580.0" height="380.0" viewBox="30.0 450.0 580.0 380.0" version="1.1">
<rect x="30.0" y="450.0" width="580.0" height="380.0" fill="rgb(255,255,255)"/>
<g id="g161720783">
<rect id="s226922332" x="240.0" y="480.0" width="160.0" height="120.0" fill="none" stroke-width="2.0" stroke="rgb(0,0,0)" rx="24.0" ry="24.0"/>
<path id="s253837925" d="M 240.00002,515.99994 399.99997,515.99994 " fill="none" stroke-width="2.0" stroke="rgb(0,0,0)"/>
<g id="t161720783">
<text xml:space="preserve" x="320.0" y="563.4961" font-family="Sans,Helvetica" fill="rgb(0,0,0)" font-size="14"/>
</g>
</g>
<g id="g111715519">
<polygon id="s45778828" points="260.0,480.0 360.0,480.0 360.0,520.0 260.0,520.0 " fill="none"/>
<g id="t111715519">
<text xml:space="preserve" x="277.5" y="505.4961" font-family="Sans,Helvetica" fill="rgb(0,0,0)" font-size="14">Candidato</text>
</g>
</g>
<g id="g16813781">
<polygon id="s109045482" points="240.0,520.0 400.0,520.0 400.0,540.0 240.0,540.0 " fill="none"/>
<g id="t16813781">
<text xml:space="preserve" x="265.00003" y="535.4961" font-family="Sans,Helvetica" fill="rgb(0,0,0)" font-size="14">Inscricao : Integer</text>
</g>
</g>
<g id="g265080283">
<polygon id="s55480440" points="260.0,540.0 380.0,540.0 380.0,560.0 260.0,560.0 " fill="none"/>
<g id="t265080283">
<text xml:space="preserve" x="279.50003" y="555.496" font-family="Sans,Helvetica" fill="rgb(0,0,0)" font-size="14">nome : String</text>
</g>
</g>
<g id="g222839633">
<polygon id="s233670582" points="240.0,560.0 400.0,560.0 400.0,580.0 240.0,580.0 " fill="none"/>
<g id="t222839633">
<text xml:space="preserve" x="266.50003" y="575.496" font-family="Sans,Helvetica" fill="rgb(0,0,0)" font-size="14">codCargo : String</text>
</g>
</g>
<g id="g171994295">
<polygon id="s186137636" points="240.0,580.0 400.0,580.0 400.0,600.0 240.0,600.0 " fill="none"/>
<g id="t171994295">
<text xml:space="preserve" x="262.50003" y="595.49585" font-family="Sans,Helvetica" fill="rgb(0,0,0)" font-size="14">codPartido : String</text>
</g>
</g>
<g id="g58508173">
<rect id="s197290306" x="240.0" y="600.0" width="160.0" height="20.0" fill="none" stroke-width="2.0" stroke="rgb(0,0,0)" rx="10.0" ry="10.0"/>
<g id="t58508173">
<text xml:space="preserve" x="267.5" y="615.4961" font-family="Sans,Helvetica" fill="rgb(0,0,0)" font-size="14">Getters &amp; Setters</text>
</g>
</g>
<g id="g149232979">
<rect id="s162461328" x="60.0" y="480.0" width="140.0" height="100.0" fill="none" stroke-width="2.0" stroke="rgb(0,0,0)" rx="20.0" ry="20.0"/>
<path id="s33491849" d="M 60.00006,509.99997 200.00002,509.99997 " fill="none" stroke-width="2.0" stroke="rgb(0,0,0)"/>
<g id="t149232979">
<text xml:space="preserve" x="130.00003" y="550.49615" font-family="Sans,Helvetica" fill="rgb(0,0,0)" font-size="14"/>
</g>
</g>
<g id="g68278158">
<polygon id="s18496431" points="80.0,480.0 180.0,480.0 180.0,520.0 80.0,520.0 " fill="none"/>
<g id="t68278158">
<text xml:space="preserve" x="110.50003" y="505.4961" font-family="Sans,Helvetica" fill="rgb(0,0,0)" font-size="14">Eleitor</text>
</g>
</g>
<g id="g246737852">
<polygon id="s38000453" points="60.0,520.0 200.0,520.0 200.0,540.0 60.0,540.0 " fill="none"/>
<g id="t246737852">
<text xml:space="preserve" x="75.00009" y="535.4961" font-family="Sans,Helvetica" fill="rgb(0,0,0)" font-size="14">Inscricao : Integer</text>
</g>
</g>
<g id="g114810522">
<polygon id="s81322955" points="80.0,540.0 180.0,540.0 180.0,560.0 80.0,560.0 " fill="none"/>
<g id="t114810522">
<text xml:space="preserve" x="89.50009" y="555.49615" font-family="Sans,Helvetica" fill="rgb(0,0,0)" font-size="14">nome : String</text>
</g>
</g>
<g id="g264439720">
<rect id="s105882305" x="220.0" y="660.0" width="200.0" height="120.0" fill="none" stroke-width="2.0" stroke="rgb(0,0,0)" rx="24.0" ry="24.0"/>
<path id="s96815718" d="M 219.99992,695.9998 419.99942,695.9998 " fill="none" stroke-width="2.0" stroke="rgb(0,0,0)"/>
<g id="t264439720">
<text xml:space="preserve" x="319.9998" y="743.496" font-family="Sans,Helvetica" fill="rgb(0,0,0)" font-size="14"/>
</g>
</g>
<g id="g42987943">
<polygon id="s18150996" points="240.0,660.0 400.0,660.0 400.0,700.0 240.0,700.0 " fill="none"/>
<g id="t42987943">
<text xml:space="preserve" x="305.0" y="685.4961" font-family="Sans,Helvetica" fill="rgb(0,0,0)" font-size="14">Voto</text>
</g>
</g>
<g id="g32680445">
<polygon id="s181118706" points="220.0,720.0 420.0,720.0 420.0,740.0 220.0,740.0 " fill="none"/>
<g id="t32680445">
<text xml:space="preserve" x="247.50003" y="735.49603" font-family="Sans,Helvetica" fill="rgb(0,0,0)" font-size="14">inscricaoEleitor: Integer</text>
</g>
</g>
<g id="g113246531">
<polygon id="s217392064" points="220.0,700.0 420.0,700.0 420.0,720.0 220.0,720.0 " fill="none"/>
<g id="t113246531">
<text xml:space="preserve" x="233.00003" y="715.4961" font-family="Sans,Helvetica" fill="rgb(0,0,0)" font-size="14">inscricaoCandidato : Integer</text>
</g>
</g>
<g id="g197454073">
<rect id="s191447102" x="220.0" y="780.0" width="200.0" height="20.0" fill="none" stroke-width="2.0" stroke="rgb(0,0,0)" rx="10.0" ry="10.0"/>
<g id="t197454073">
<text xml:space="preserve" x="267.5" y="795.4961" font-family="Sans,Helvetica" fill="rgb(0,0,0)" font-size="14">Getters &amp; Setters</text>
</g>
</g>
<g id="g190279327">
<polygon id="s99138540" points="460.0,480.0 560.0,480.0 560.0,520.0 460.0,520.0 " fill="none"/>
<g id="t190279327">
<text xml:space="preserve" x="491.0001" y="505.4961" font-family="Sans,Helvetica" fill="rgb(0,0,0)" font-size="14">Cargo</text>
</g>
</g>
<g id="g31595445">
<polygon id="s78979658" points="460.0,540.0 560.0,540.0 560.0,560.0 460.0,560.0 " fill="none"/>
<g id="t31595445">
<text xml:space="preserve" x="469.50003" y="555.4962" font-family="Sans,Helvetica" fill="rgb(0,0,0)" font-size="14">nome : String</text>
</g>
</g>
<g id="g13522363">
<polygon id="s261860056" points="440.0,520.0 580.0,520.0 580.0,540.0 440.0,540.0 " fill="none"/>
<g id="t13522363">
<text xml:space="preserve" x="456.50006" y="535.49615" font-family="Sans,Helvetica" fill="rgb(0,0,0)" font-size="14">codCargo : String</text>
</g>
</g>
<g id="g241548849">
<rect id="s204151062" x="440.0" y="480.0" width="140.0" height="100.0" fill="none" stroke-width="2.0" stroke="rgb(0,0,0)" rx="20.0" ry="20.0"/>
<path id="s218272407" d="M 440.00012,509.9999 579.9999,510.00003 " fill="none" stroke-width="2.0" stroke="rgb(0,0,0)"/>
<g id="t241548849">
<text xml:space="preserve" x="510.0" y="550.49603" font-family="Sans,Helvetica" fill="rgb(0,0,0)" font-size="14"/>
</g>
</g>
<g id="g176987268">
<rect id="s128388205" x="440.0" y="580.0" width="140.0" height="20.0" fill="none" stroke-width="2.0" stroke="rgb(0,0,0)" rx="10.0" ry="10.0"/>
<g id="t176987268">
<text xml:space="preserve" x="457.5" y="595.4961" font-family="Sans,Helvetica" fill="rgb(0,0,0)" font-size="14">Getters &amp; Setters</text>
</g>
</g>
<g id="g20426914">
<rect id="s198426931" x="60.0" y="580.0" width="140.0" height="20.0" fill="none" stroke-width="2.0" stroke="rgb(0,0,0)" rx="10.0" ry="10.0"/>
<g id="t20426914">
<text xml:space="preserve" x="77.5" y="595.4961" font-family="Sans,Helvetica" fill="rgb(0,0,0)" font-size="14">Getters &amp; Setters</text>
</g>
</g>
<g id="g242810096">
<polygon id="s137691753" points="260.0,740.0 380.0,740.0 380.0,760.0 260.0,760.0 " fill="none"/>
<g id="t242810096">
<text xml:space="preserve" x="266.5" y="755.4961" font-family="Sans,Helvetica" fill="rgb(0,0,0)" font-size="14">codCargo : String</text>
</g>
</g>
</svg>
