<?xml version="1.0" encoding="UTF-8"?><svg xmlns="http://www.w3.org/2000/svg" xmlns:xlink="http://www.w3.org/1999/xlink" width="1260.0" height="1120.0" viewBox="-670.0 330.0 1260.0 1120.0" version="1.1">
<rect x="-670.0" y="330.0" width="1260.0" height="1120.0" fill="rgb(255,255,255)"/>
<g id="s49537702">
<ellipse id="s49537702" cx="180.0" cy="380.0" rx="40.0" ry="20.0" fill="none" stroke-width="2.0" stroke="rgb(0,0,0)"/>
<g id="t49537702">
<text xml:space="preserve" x="163.5" y="385.4961" font-family="Sans,Helvetica" fill="rgb(0,0,0)" font-size="14">Inicio</text>
</g>
</g>
<g id="s55198951">
<polygon id="s55198951" points="20.0,960.0 159.99997,960.0 159.99994,1000.0 20.0,1000.0 " fill="none" stroke-width="2.0" stroke="rgb(0,0,0)"/>
<g id="t55198951">
<text xml:space="preserve" x="45.499985" y="985.4961" font-family="Sans,Helvetica" fill="rgb(0,0,0)" font-size="14">remove cliente</text>
</g>
</g>
<g id="s155707540">
<polygon id="s155707540" points="320.0,880.0 480.0,880.0 479.99988,919.9998 320.0,920.0 " fill="none" stroke-width="2.0" stroke="rgb(0,0,0)"/>
<g id="t155707540">
<text xml:space="preserve" x="351.5" y="905.4961" font-family="Sans,Helvetica" fill="rgb(0,0,0)" font-size="14">modifica cliente</text>
</g>
</g>
<g id="s49499965">
<polygon id="s49499965" points="120.0,490.00015 179.99991,540.0 240.0,490.00012 179.99988,440.0 " fill="none" stroke-width="2.0" stroke="rgb(0,0,0)"/>
<g id="t49499965">
<text xml:space="preserve" x="150.0" y="486.20605" font-family="Sans,Helvetica" fill="rgb(0,0,0)" font-size="14">enquanto</text>
<text xml:space="preserve" x="147.5" y="504.78613" font-family="Sans,Helvetica" fill="rgb(0,0,0)" font-size="14">opcao != 0</text>
</g>
</g>
<g id="s166429490">
<path id="s166429490" d=" M120.000015,619.99963 120.00001,580.0 239.99991,580.0 240.00003,620.0 240.00003,620.0  C210.00002,600.0 150.00002,640.0 120.0,620.0 " fill="none" stroke-width="2.0" stroke="rgb(0,0,0)"/>
<g id="t166429490">
<text xml:space="preserve" x="138.50002" y="605.4961" font-family="Sans,Helvetica" fill="rgb(0,0,0)" font-size="14">mostra menu</text>
</g>
</g>
<g id="s99371139">
<polygon id="s99371139" points="120.00001,709.9997 180.00003,760.0 240.00003,709.9998 180.0,660.0 " fill="none" stroke-width="2.0" stroke="rgb(0,0,0)"/>
<g id="t99371139">
<text xml:space="preserve" x="160.50002" y="715.4961" font-family="Sans,Helvetica" fill="rgb(0,0,0)" font-size="14">opção</text>
</g>
</g>
<g id="s201652736">
<path id="s201652736" d=" M-580.0,900.0 -580.0,860.0 -400.0,860.0 -400.00012,900.0 -400.0,900.0  C-445.0,880.0 -535.0,920.0 -580.0,900.0 " fill="none" stroke-width="2.0" stroke="rgb(0,0,0)"/>
<g id="t201652736">
<text xml:space="preserve" x="-530.0" y="885.4961" font-family="Sans,Helvetica" fill="rgb(0,0,0)" font-size="14">mostra stats</text>
</g>
</g>
<g id="s239772217">
<polygon id="s239772217" points="-400.0,1140.0002 -320.00003,1180.0 -239.99998,1140.0002 -320.00006,1100.0 " fill="none" stroke-width="2.0" stroke="rgb(0,0,0)"/>
<g id="t239772217">
<text xml:space="preserve" x="-362.5" y="1145.4961" font-family="Sans,Helvetica" fill="rgb(0,0,0)" font-size="14">tipo de cliente</text>
</g>
</g>
<g id="s71999614">
<polygon id="s71999614" points="-380.0,1260.0 -260.0,1260.0 -260.0,1300.0 -380.0,1300.0 " fill="none" stroke-width="2.0" stroke="rgb(0,0,0)"/>
<g id="t71999614">
<text xml:space="preserve" x="-368.0" y="1276.206" font-family="Sans,Helvetica" fill="rgb(0,0,0)" font-size="14">Cadastra como</text>
<text xml:space="preserve" x="-366.5" y="1294.7861" font-family="Sans,Helvetica" fill="rgb(0,0,0)" font-size="14">pessoa jurídica</text>
</g>
</g>
<g id="s2157023">
<polygon id="s2157023" points="-160.0,1120.0 -40.00009,1120.0 -39.99997,1160.0 -160.0,1160.0 " fill="none" stroke-width="2.0" stroke="rgb(0,0,0)"/>
<g id="t2157023">
<text xml:space="preserve" x="-147.99998" y="1136.206" font-family="Sans,Helvetica" fill="rgb(0,0,0)" font-size="14">Cadastra como</text>
<text xml:space="preserve" x="-140.49998" y="1154.7861" font-family="Sans,Helvetica" fill="rgb(0,0,0)" font-size="14">pessoa física</text>
</g>
</g>
<g id="s113227308">
<polygon id="s113227308" points="-360.0,980.0 -320.0,1020.0 -280.0,980.0 -320.0,940.0 " fill="none" stroke-width="2.0" stroke="rgb(0,0,0)"/>
<g id="t113227308">
<text xml:space="preserve" x="-334.0" y="976.20605" font-family="Sans,Helvetica" fill="rgb(0,0,0)" font-size="14">se já</text>
<text xml:space="preserve" x="-338.0" y="994.78613" font-family="Sans,Helvetica" fill="rgb(0,0,0)" font-size="14">existe</text>
</g>
</g>
<g id="s187312373">
<path id="s187312373" d=" M-580.0,999.9998 -580.0,959.99994 -400.0,959.99994 -400.00006,999.99994 -400.0,999.99994  C-445.0,979.99994 -535.0,1019.99994 -580.0,999.99994 " fill="none" stroke-width="2.0" stroke="rgb(0,0,0)"/>
<g id="t187312373">
<text xml:space="preserve" x="-530.5" y="985.49603" font-family="Sans,Helvetica" fill="rgb(0,0,0)" font-size="14">mostra aviso</text>
</g>
</g>
<g id="s200033930">
<polygon id="s200033930" points="320.0,1100.0001 360.0,1140.0 400.0,1100.0 360.0,1060.0 " fill="none" stroke-width="2.0" stroke="rgb(0,0,0)"/>
<g id="t200033930">
<text xml:space="preserve" x="353.0" y="1096.206" font-family="Sans,Helvetica" fill="rgb(0,0,0)" font-size="14">se</text>
<text xml:space="preserve" x="342.0" y="1114.7861" font-family="Sans,Helvetica" fill="rgb(0,0,0)" font-size="14">existe</text>
</g>
</g>
<g id="s164906235">
<path id="s164906235" d=" M280.0,1280.0 280.0,1240.0 439.99994,1240.0 440.0,1280.0 440.0,1280.0  C400.0,1260.0 320.0,1300.0 280.0,1280.0 " fill="none" stroke-width="2.0" stroke="rgb(0,0,0)"/>
<g id="t164906235">
<text xml:space="preserve" x="319.5" y="1265.4961" font-family="Sans,Helvetica" fill="rgb(0,0,0)" font-size="14">mostra aviso</text>
</g>
</g>
<g id="s25692440">
<polygon id="s25692440" points="-180.0,960.00006 -40.0,960.00006 -40.000015,999.99976 -180.0,1000.0 " fill="none" stroke-width="2.0" stroke="rgb(0,0,0)"/>
<g id="t25692440">
<text xml:space="preserve" x="-159.5" y="985.4961" font-family="Sans,Helvetica" fill="rgb(0,0,0)" font-size="14">cadastra cliente</text>
</g>
</g>
<g id="s172056433">
<polygon id="s172056433" points="-79.99997,460.0 59.99993,460.0 59.99999,520.0 -80.0,519.99945 " fill="none" stroke-width="2.0" stroke="rgb(0,0,0)"/>
<g id="t172056433">
<text xml:space="preserve" x="-61.000008" y="495.4961" font-family="Sans,Helvetica" fill="rgb(0,0,0)" font-size="14">para a execução</text>
</g>
</g>
<g id="g189808982">
<polygon id="s259927542" points="420.0,1080.0 440.0,1080.0 440.0,1100.0 420.0,1100.0 " fill="none"/>
<g id="t189808982">
<text xml:space="preserve" x="426.0" y="1095.4961" font-family="Sans,Helvetica" fill="rgb(0,0,0)" font-size="14">S</text>
</g>
</g>
<g id="g60306903">
<polygon id="s218019319" points="340.0,1160.0 360.0,1160.0 360.0,1180.0 340.0,1180.0 " fill="none"/>
<g id="t60306903">
<text xml:space="preserve" x="345.0" y="1175.4961" font-family="Sans,Helvetica" fill="rgb(0,0,0)" font-size="14">N</text>
</g>
</g>
<g id="g58760900">
<polygon id="s133098596" points="20.0,780.0 40.0,780.0 40.0,800.0 20.0,800.0 " fill="none"/>
<g id="t58760900">
<text xml:space="preserve" x="26.000011" y="795.4961" font-family="Sans,Helvetica" fill="rgb(0,0,0)" font-size="14">1</text>
</g>
</g>
<g id="g230392237">
<polygon id="s102321869" points="140.0,820.0 160.0,820.0 160.0,840.0 140.0,840.0 " fill="none"/>
<g id="t230392237">
<text xml:space="preserve" x="146.0" y="835.4961" font-family="Sans,Helvetica" fill="rgb(0,0,0)" font-size="14">2</text>
</g>
</g>
<g id="g52894946">
<polygon id="s240595842" points="380.0,760.0 400.0,760.0 400.0,780.0 380.0,780.0 " fill="none"/>
<g id="t52894946">
<text xml:space="preserve" x="386.0" y="775.4961" font-family="Sans,Helvetica" fill="rgb(0,0,0)" font-size="14">3</text>
</g>
</g>
<g id="g188766323">
<polygon id="s90094227" points="-140.0,700.0 -100.0,700.0 -100.0,740.0 -140.0,740.0 " fill="none"/>
<g id="t188766323">
<text xml:space="preserve" x="-124.0" y="725.4961" font-family="Sans,Helvetica" fill="rgb(0,0,0)" font-size="14">4</text>
</g>
</g>
<g id="g21685040">
<polygon id="s115370704" points="240.00002,640.0 260.0,640.0 260.0,660.0 240.00002,660.0 " fill="none"/>
<g id="t21685040">
<text xml:space="preserve" x="246.0" y="655.4961" font-family="Sans,Helvetica" fill="rgb(0,0,0)" font-size="14">0</text>
</g>
</g>
<g id="g87788457">
<polygon id="s184093385" points="-380.0,960.0 -360.0,960.0 -360.0,980.0 -380.0,980.0 " fill="none"/>
<g id="t87788457">
<text xml:space="preserve" x="-374.0" y="975.4961" font-family="Sans,Helvetica" fill="rgb(0,0,0)" font-size="14">S</text>
</g>
</g>
<g id="g243776820">
<polygon id="s231278030" points="-320.0,1040.0 -300.0,1040.0 -300.0,1060.0 -320.0,1060.0 " fill="none"/>
<g id="t243776820">
<text xml:space="preserve" x="-315.0" y="1055.4961" font-family="Sans,Helvetica" fill="rgb(0,0,0)" font-size="14">N</text>
</g>
</g>
<g id="g211690798">
<polygon id="s162557167" points="-320.0,1200.0 -300.0,1200.0 -300.0,1220.0 -320.0,1220.0 " fill="none"/>
<g id="t211690798">
<text xml:space="preserve" x="-314.0" y="1215.4961" font-family="Sans,Helvetica" fill="rgb(0,0,0)" font-size="14">J</text>
</g>
</g>
<g id="g238946511">
<polygon id="s19489788" points="-220.0,1140.0 -200.0,1140.0 -200.0,1160.0 -220.0,1160.0 " fill="none"/>
<g id="t238946511">
<text xml:space="preserve" x="-214.0" y="1155.4961" font-family="Sans,Helvetica" fill="rgb(0,0,0)" font-size="14">F</text>
</g>
</g>
<g id="s86689438">
<path id="s86689438" d=" M-580.0,679.9999 -580.0,639.99994 -400.0001,639.99994 -400.0,679.99994 -400.0,685.625  C-445.0,662.8125 -535.0,708.43756 -580.0,685.625 " fill="none" stroke-width="2.0" stroke="rgb(0,0,0)"/>
<g id="t86689438">
<text xml:space="preserve" x="-538.5" y="668.3086" font-family="Sans,Helvetica" fill="rgb(0,0,0)" font-size="14">consulta cliente</text>
</g>
</g>
<g id="g260687562">
<polygon id="s201230981" points="-140.0,620.0 -100.0,620.0 -100.0,660.0 -140.0,660.0 " fill="none"/>
<g id="t260687562">
<text xml:space="preserve" x="-124.0" y="645.4961" font-family="Sans,Helvetica" fill="rgb(0,0,0)" font-size="14">5</text>
</g>
</g>
<g id="la104006236">
<path id="s104006236" d="M 179.99988,440.0 180.0,400.0 " fill="none" stroke-width="2.0" stroke="rgb(0,0,0)"/>
<g id="t104006236">
<text xml:space="preserve" x="183.99994" y="425.4961" font-family="Sans,Helvetica" fill="rgb(0,0,0)" font-size="14"/>
</g>
</g>
<g id="la228079973">
<path id="s228079973" d="M 179.99995,580.0 179.99991,540.0 " fill="none" stroke-width="2.0" stroke="rgb(0,0,0)"/>
<g id="t228079973">
<text xml:space="preserve" x="183.99994" y="565.4961" font-family="Sans,Helvetica" fill="rgb(0,0,0)" font-size="14"/>
</g>
</g>
<g id="la74147386">
<path id="s74147386" d="M 180.0,660.0 180.00003,619.9998 " fill="none" stroke-width="2.0" stroke="rgb(0,0,0)"/>
<g id="t74147386">
<text xml:space="preserve" x="184.00002" y="645.496" font-family="Sans,Helvetica" fill="rgb(0,0,0)" font-size="14"/>
</g>
</g>
<g id="la96232171">
<path id="s96232171" d="M 89.999985,960.0 89.999985,820.0 210.00003,820.0 210.00003,734.9999 " fill="none" stroke-width="2.0" stroke="rgb(0,0,0)"/>
<path id="s12642571" d="M 82.26937,950.8219 89.999985,960.0 97.7306,950.8219 " fill="none" stroke-width="2.0" stroke="rgb(0,0,0)"/>
<g id="t96232171">
<text xml:space="preserve" x="118.50006" y="812.20605" font-family="Sans,Helvetica" fill="rgb(0,0,0)" font-size="14"/>
</g>
</g>
<g id="la68937800">
<path id="s68937800" d="M 120.0,710.0 -490.0,710.0 -490.0,860.0 " fill="none" stroke-width="2.0" stroke="rgb(0,0,0)"/>
<path id="s44483560" d="M -497.73062,850.8219 -490.0,860.0 -482.26938,850.8219 " fill="none" stroke-width="2.0" stroke="rgb(0,0,0)"/>
<g id="t68937800">
<text xml:space="preserve" x="-264.0" y="702.20605" font-family="Sans,Helvetica" fill="rgb(0,0,0)" font-size="14"/>
</g>
</g>
<g id="la5768929">
<path id="s5768929" d="M -320.00003,1180.0 -320.0,1260.0 " fill="none" stroke-width="2.0" stroke="rgb(0,0,0)"/>
<path id="s237128193" d="M -327.73062,1250.8219 -320.0,1260.0 -312.26938,1250.8219 " fill="none" stroke-width="2.0" stroke="rgb(0,0,0)"/>
<g id="t5768929">
<text xml:space="preserve" x="-316.00003" y="1225.4961" font-family="Sans,Helvetica" fill="rgb(0,0,0)" font-size="14"/>
</g>
</g>
<g id="la177843206">
<path id="s177843206" d="M -239.99998,1140.0002 -160.0,1140.0 " fill="none" stroke-width="2.0" stroke="rgb(0,0,0)"/>
<path id="s82575526" d="M -169.17809,1147.7306 -160.0,1140.0 -169.17813,1132.2694 " fill="none" stroke-width="2.0" stroke="rgb(0,0,0)"/>
<g id="t177843206">
<text xml:space="preserve" x="-200.0" y="1132.2062" font-family="Sans,Helvetica" fill="rgb(0,0,0)" font-size="14"/>
</g>
</g>
<g id="la142361287">
<path id="s142361287" d="M -320.0,1020.0 -320.00006,1100.0 " fill="none" stroke-width="2.0" stroke="rgb(0,0,0)"/>
<g id="t142361287">
<text xml:space="preserve" x="-316.00003" y="1065.4961" font-family="Sans,Helvetica" fill="rgb(0,0,0)" font-size="14"/>
</g>
</g>
<g id="la103497972">
<path id="s103497972" d="M -400.00003,979.99994 -360.0,980.0 " fill="none" stroke-width="2.0" stroke="rgb(0,0,0)"/>
<path id="s118688487" d="M -390.8219,972.26935 -400.00003,979.99994 -390.82193,987.7306 " fill="none" stroke-width="2.0" stroke="rgb(0,0,0)"/>
<g id="t103497972">
<text xml:space="preserve" x="-380.0" y="972.206" font-family="Sans,Helvetica" fill="rgb(0,0,0)" font-size="14"/>
</g>
</g>
<g id="la250425373">
<path id="s250425373" d="M 159.99995,980.0 340.0,980.0 340.0,1080.0 " fill="none" stroke-width="2.0" stroke="rgb(0,0,0)"/>
<g id="t250425373">
<text xml:space="preserve" x="304.0" y="972.20605" font-family="Sans,Helvetica" fill="rgb(0,0,0)" font-size="14"/>
</g>
</g>
<g id="la51675794">
<path id="s51675794" d="M 399.99994,919.9999 399.99994,980.0 380.0,980.0 380.0,1080.0 " fill="none" stroke-width="2.0" stroke="rgb(0,0,0)"/>
<g id="t51675794">
<text xml:space="preserve" x="376.0" y="982.20605" font-family="Sans,Helvetica" fill="rgb(0,0,0)" font-size="14"/>
</g>
</g>
<g id="la242238563">
<path id="s242238563" d="M 360.0,1140.0 359.99997,1240.0 " fill="none" stroke-width="2.0" stroke="rgb(0,0,0)"/>
<path id="s102250132" d="M 352.26935,1230.8219 359.99997,1240.0 367.7306,1230.8219 " fill="none" stroke-width="2.0" stroke="rgb(0,0,0)"/>
<g id="t242238563">
<text xml:space="preserve" x="364.0" y="1195.4961" font-family="Sans,Helvetica" fill="rgb(0,0,0)" font-size="14"/>
</g>
</g>
<g id="la37058656">
<path id="s37058656" d="M -320.0,1300.0 -320.0,1420.0 560.0,1420.0 560.0,490.00012 240.0,490.00012 " fill="none" stroke-width="2.0" stroke="rgb(0,0,0)"/>
<path id="s57181501" d="M 249.1781,482.2695 240.0,490.00012 249.1781,497.73074 " fill="none" stroke-width="2.0" stroke="rgb(0,0,0)"/>
<g id="t37058656">
<text xml:space="preserve" x="563.99994" y="1313.7861" font-family="Sans,Helvetica" fill="rgb(0,0,0)" font-size="14"/>
</g>
</g>
<g id="la95531289">
<path id="s95531289" d="M 400.0,1100.0 560.0,1100.0 560.0,490.0 240.0,490.0 " fill="none" stroke-width="2.0" stroke="rgb(0,0,0)"/>
<g id="t95531289">
<text xml:space="preserve" x="564.0" y="707.20605" font-family="Sans,Helvetica" fill="rgb(0,0,0)" font-size="14"/>
</g>
</g>
<g id="la49559006">
<path id="s49559006" d="M -39.99997,1140.0 120.0,1140.0 120.0,1420.0 560.0,1420.0 560.0,490.0 240.0,490.0 " fill="none" stroke-width="2.0" stroke="rgb(0,0,0)"/>
<g id="t49559006">
<text xml:space="preserve" x="563.99994" y="1253.7861" font-family="Sans,Helvetica" fill="rgb(0,0,0)" font-size="14"/>
</g>
</g>
<g id="la35177407">
<path id="s35177407" d="M -110.0,960.00006 -110.0,780.0 150.0,780.0 150.00002,734.9999 " fill="none" stroke-width="2.0" stroke="rgb(0,0,0)"/>
<path id="s105349426" d="M -117.73061,950.82196 -110.0,960.00006 -102.26939,950.82196 " fill="none" stroke-width="2.0" stroke="rgb(0,0,0)"/>
<g id="t35177407">
<text xml:space="preserve" x="-51.49997" y="772.20605" font-family="Sans,Helvetica" fill="rgb(0,0,0)" font-size="14"/>
</g>
</g>
<g id="la82426508">
<path id="s82426508" d="M -280.0,980.0 -180.0,980.0 " fill="none" stroke-width="2.0" stroke="rgb(0,0,0)"/>
<g id="t82426508">
<text xml:space="preserve" x="-230.0" y="972.20605" font-family="Sans,Helvetica" fill="rgb(0,0,0)" font-size="14"/>
</g>
</g>
<g id="la44254677">
<path id="s44254677" d="M 240.00003,709.9998 400.0,709.9998 400.0,880.0 " fill="none" stroke-width="2.0" stroke="rgb(0,0,0)"/>
<path id="s75198083" d="M 392.26938,870.8219 400.0,880.0 407.73062,870.8219 " fill="none" stroke-width="2.0" stroke="rgb(0,0,0)"/>
<g id="t44254677">
<text xml:space="preserve" x="404.0" y="707.206" font-family="Sans,Helvetica" fill="rgb(0,0,0)" font-size="14"/>
</g>
</g>
<g id="la109695466">
<path id="s109695466" d="M 59.99996,490.0 120.0,490.00015 " fill="none" stroke-width="2.0" stroke="rgb(0,0,0)"/>
<g id="t109695466">
<text xml:space="preserve" x="89.999985" y="482.20615" font-family="Sans,Helvetica" fill="rgb(0,0,0)" font-size="14"/>
</g>
</g>
<g id="la195026139">
<path id="s195026139" d="M -580.0,882.81244 -640.0,882.81244 -640.0,1420.0 560.0,1420.0 560.0,490.0 240.0,490.0 " fill="none" stroke-width="2.0" stroke="rgb(0,0,0)"/>
<path id="s9185280" d="M 249.1781,482.26938 240.0,490.0 249.1781,497.73062 " fill="none" stroke-width="2.0" stroke="rgb(0,0,0)"/>
<g id="t195026139">
<text xml:space="preserve" x="290.40625" y="1438.7861" font-family="Sans,Helvetica" fill="rgb(0,0,0)" font-size="14"/>
</g>
</g>
<g id="la242916263">
<path id="s242916263" d="M -400.00006,659.99994 150.0,659.99994 150.0,684.9999 " fill="none" stroke-width="2.0" stroke="rgb(0,0,0)"/>
<path id="s266156089" d="M -390.82196,652.26935 -400.00006,659.99994 -390.82196,667.7305 " fill="none" stroke-width="2.0" stroke="rgb(0,0,0)"/>
</g>
<g id="la204380479">
<path id="s204380479" d="M -580.0,659.9999 -640.0,659.9999 -640.0,1420.0 560.0,1420.0 560.0,490.00012 240.0,490.00012 " fill="none" stroke-width="2.0" stroke="rgb(0,0,0)"/>
</g>
<g id="la138584588">
<path id="s138584588" d="M 210.00002,684.9999 210.00002,660.0 280.0,660.0 280.0,490.00012 240.0,490.00012 " fill="none" stroke-width="2.0" stroke="rgb(0,0,0)"/>
<g id="t138584588">
<text xml:space="preserve" x="284.0" y="621.28613" font-family="Sans,Helvetica" fill="rgb(0,0,0)" font-size="14"/>
</g>
</g>
</svg>
